<svg width="465" height="426" viewBox="0 0 465 426" fill="none" xmlns="http://www.w3.org/2000/svg">
<path d="M108.5 272L135.5 187.5M108.5 272L50.5 185.5M108.5 272L8.5 146.5M108.5 272L233.5 61.5M108.5 272L88.7593 186.4M135.5 187.5L88.7593 186.4M135.5 187.5L105.538 148.206M135.5 187.5L233.5 61.5M135.5 187.5L150.23 117.923M135.5 187.5L85.2735 171.285M135.5 187.5L309.5 360L328.41 274.479M135.5 187.5L296 123.5M135.5 187.5L159 77.5M135.5 187.5L51 23L387 9.50003L328.41 274.479M88.7593 186.4L50.5 185.5M88.7593 186.4L85.2735 171.285M50.5 185.5L8.5 146.5M50.5 185.5L57.6207 162.358M50.5 185.5L69.6654 166.246M50.5 185.5V160.059M50.5 185.5L75.93 168.269M8.5 146.5L50.5 20.5M8.5 146.5L50.5 121.682M8.5 146.5L50.5 160.059M50.5 20.5L74.5 107.5M50.5 20.5L159 76.5M50.5 20.5L233.5 61.5M50.5 20.5V121.682M50.5 20.5L71.0357 109.547M74.5 107.5L97.7675 138.015M74.5 107.5L72.25 114.813M74.5 107.5L159 76.5M74.5 107.5L71.0357 109.547M74.5 107.5L149.838 85.7041M97.7675 138.015L105.538 148.206M97.7675 138.015L81.3942 154.464M97.7675 138.015L149.838 85.7041M105.538 148.206L83.4092 163.201M105.538 148.206L150.23 117.923M57.6207 162.358L72.25 114.813M57.6207 162.358L69.6654 166.246M57.6207 162.358L50.5 160.059M72.25 114.813L71.0357 109.547M72.25 114.813L81.3942 154.464M159 76.5L233.5 61.5M159 76.5L157.522 83.4811M159 76.5L149.838 85.7041M233.5 61.5L157.522 83.4811M233.5 61.5L150.23 117.923M157.522 83.4811L150.23 117.923M157.522 83.4811L149.838 85.7041M50.5 121.682L71.0357 109.547M50.5 121.682V160.059M69.6654 166.246L81.3942 154.464M69.6654 166.246L75.93 168.269M81.3942 154.464L83.4092 163.201M85.2735 171.285L75.93 168.269M85.2735 171.285L83.4092 163.201M75.93 168.269L83.4092 163.201M231.217 62.4848L296.182 122.89M231.217 62.4848L334.179 46.8297M231.217 62.4848L386.615 8.99998M231.217 62.4848L368.47 265.208M231.217 62.4848L321.308 72.594M296.182 122.89L321.308 72.594M296.182 122.89L344.492 112.508M296.182 122.89L368.47 265.208M296.182 122.89L352.867 165.84M296.182 122.89L334.907 74.12M321.308 72.594L334.179 46.8297M321.308 72.594L334.907 74.12M334.179 46.8297C354.943 38.4725 386.615 8.99998 386.615 8.99998M334.179 46.8297L347.182 58.6615M334.179 46.8297L341.201 66.1931M334.179 46.8297L351.872 52.7545M334.179 46.8297L337.877 70.38M386.615 8.99998L456.385 87.7512M386.615 8.99998L391.486 66.0194M386.615 8.99998L351.872 52.7545M456.385 87.7512L394.539 101.753M456.385 87.7512L386.615 191.411M456.385 87.7512L368.47 265.208M456.385 87.7512L391.486 66.0194M456.385 87.7512L392.733 80.6087M394.539 101.753L357.022 109.816M394.539 101.753L368.287 77.8655M394.539 101.753L386.615 191.411M394.539 101.753L392.733 80.6087M394.539 101.753L382.187 179.202M357.022 109.816L344.492 112.508M357.022 109.816L344.465 75.1925M357.022 109.816L382.187 179.202M344.492 112.508L338.528 74.5263M344.492 112.508L352.867 165.84M347.182 58.6615L368.287 77.8655M347.182 58.6615L341.201 66.1931M347.182 58.6615L351.872 52.7545M368.287 77.8655L392.733 80.6087M368.287 77.8655L344.465 75.1925M386.615 191.411L368.47 265.208M386.615 191.411L380.927 187.102M386.615 191.411L382.187 179.202M368.47 265.208L380.927 187.102M368.47 265.208L352.867 165.84M380.927 187.102L352.867 165.84M380.927 187.102L382.187 179.202M391.486 66.0194L392.733 80.6087M391.486 66.0194L351.872 52.7545M341.201 66.1931L344.465 75.1925M341.201 66.1931L337.877 70.38M344.465 75.1925L338.528 74.5263M334.907 74.12L337.877 70.38M334.907 74.12L338.528 74.5263M337.877 70.38L338.528 74.5263M369 265.5L265.278 288.028M369 265.5C369 265.5 325.531 323.623 309.158 360.853M369 265.5L294 417.215M369 265.5L289.273 327.85M369 265.5L233.327 220.373M369 265.5L230 225.5M369 265.5L108 273.5L230 225.5M265.278 288.028L289.273 327.85M265.278 288.028L236.013 329.109M265.278 288.028L106.377 272.85M265.278 288.028L198.648 312.893M265.278 288.028L276.374 337.937M289.273 327.85L309.158 360.853M289.273 327.85L276.374 337.937M309.158 360.853C305.095 382.864 294 417.215 294 417.215M309.158 360.853C301.574 362.93 292.09 363.717 282.107 363.724M309.158 360.853L280.04 354.424M309.158 360.853L283.834 371.492M309.158 360.853L278.512 347.553M294 417.215L175 417.215M294 417.215L252.461 384.672M294 417.215L283.834 371.492M175 417.215L216.5 356.5M175 417.215L158.979 327.697M175 417.215L106.377 272.85M175 417.215L252.461 384.672M175 417.215L234.553 370.643M216.5 356.5L226.413 342.585M216.5 356.5C216.5 356.5 229.494 359.18 246.531 361.275M216.5 356.5L158.979 327.697M216.5 356.5L234.553 370.643M216.5 356.5L186.614 333.799M226.413 342.585L236.013 329.109M226.413 342.585L260.74 350.163M226.413 342.585L186.614 333.799M236.013 329.109L269.229 343.524M236.013 329.109L198.648 312.893M282.107 363.724C270.166 363.733 257.509 362.625 246.531 361.275M282.107 363.724L280.04 354.424M282.107 363.724L283.834 371.492M246.531 361.275L234.553 370.643M246.531 361.275L260.74 350.163M158.979 327.697L106.377 272.85M158.979 327.697L172.124 322.792M158.979 327.697L186.614 333.799M106.377 272.85L172.124 322.792M106.377 272.85L198.648 312.893M172.124 322.792L198.648 312.893M172.124 322.792L186.614 333.799M252.461 384.672L234.553 370.643M252.461 384.672L283.834 371.492M280.04 354.424L260.74 350.163M280.04 354.424L278.512 347.553M260.74 350.163L269.229 343.524M276.374 337.937L278.512 347.553M276.374 337.937L269.229 343.524M278.512 347.553L269.229 343.524M230 225.5L136 188L215.263 214.364M230 225.5L230.151 219.316M230 225.5L233.327 220.373M230 225.5L215.263 214.364M215.263 214.364L230.151 219.316M215.263 214.364L74.5 108L232.605 118.683M230.151 219.316L233.327 220.373M230.151 219.316L232.605 118.683M233.327 220.373L296.5 123M234 61.5L232.605 118.683M232.605 118.683L296.5 123M296.5 123L309 361.5M264.5 288L230.5 225.5M230.5 225.5L216 357.5M230.5 225.5L159.5 328.5M328.41 274.479L265.5 287L296 123.5M328.41 274.479L368.5 266.5M296 123.5L159 77.5M159 77.5L233.5 62M9 146L176 418.5M82 107.5C82 111.642 78.6421 115 74.5 115C70.3579 115 67 111.642 67 107.5C67 103.358 70.3579 100 74.5 100C78.6421 100 82 103.358 82 107.5ZM391.346 108.54C387.598 106.776 385.99 102.308 387.753 98.5604C389.516 94.8124 393.984 93.2036 397.732 94.9671C401.48 96.7306 403.089 101.198 401.326 104.946C399.562 108.694 395.094 110.303 391.346 108.54ZM212.331 350.021C215.828 347.8 220.462 348.835 222.683 352.331C224.904 355.828 223.869 360.462 220.373 362.683C216.876 364.904 212.241 363.869 210.021 360.373C207.8 356.876 208.835 352.241 212.331 350.021ZM16 146.5C16 150.642 12.6421 154 8.5 154C4.35786 154 1 150.642 1 146.5C1 142.358 4.35786 139 8.5 139C12.6421 139 16 142.358 16 146.5ZM383.786 15.7658C380.038 14.0023 378.43 9.53442 380.193 5.78642C381.956 2.03842 386.424 0.429622 390.172 2.19308C393.92 3.95653 395.529 8.42445 393.766 12.1725C392.002 15.9205 387.534 17.5292 383.786 15.7658ZM290.331 411.021C293.828 408.8 298.462 409.835 300.683 413.331C302.904 416.828 301.869 421.462 298.373 423.683C294.876 425.904 290.241 424.869 288.021 421.373C285.8 417.876 286.834 413.241 290.331 411.021ZM143 187.5C143 191.642 139.642 195 135.5 195C131.358 195 128 191.642 128 187.5C128 183.358 131.358 180 135.5 180C139.642 180 143 183.358 143 187.5ZM272 287.5C272 291.642 268.642 295 264.5 295C260.358 295 257 291.642 257 287.5C257 283.358 260.358 280 264.5 280C268.642 280 272 283.358 272 287.5ZM292.989 129.677C289.241 127.913 287.632 123.445 289.395 119.697C291.159 115.949 295.627 114.34 299.375 116.104C303.123 117.867 304.732 122.335 302.968 126.083C301.205 129.831 296.737 131.44 292.989 129.677ZM58 185.5C58 189.642 54.6421 193 50.5 193C46.3579 193 43 189.642 43 185.5C43 181.358 46.3579 178 50.5 178C54.6421 178 58 181.358 58 185.5ZM330.986 53.6161C327.238 51.8527 325.629 47.3847 327.393 43.6367C329.156 39.8887 333.624 38.2799 337.372 40.0434C341.12 41.8069 342.729 46.2748 340.965 50.0228C339.202 53.7708 334.734 55.3796 330.986 53.6161ZM305.138 354.522C308.634 352.301 313.269 353.336 315.49 356.832C317.71 360.329 316.676 364.963 313.179 367.184C309.683 369.405 305.048 368.37 302.827 364.874C300.607 361.377 301.641 356.742 305.138 354.522ZM116 272.5C116 276.642 112.642 280 108.5 280C104.358 280 101 276.642 101 272.5C101 268.358 104.358 265 108.5 265C112.642 265 116 268.358 116 272.5ZM166 76.5C166 80.6422 162.642 84 158.5 84C154.358 84 151 80.6422 151 76.5C151 72.3579 154.358 69 158.5 69C162.642 69 166 72.3579 166 76.5ZM383.635 197.745C379.887 195.981 378.278 191.513 380.042 187.765C381.805 184.017 386.273 182.409 390.021 184.172C393.769 185.936 395.378 190.403 393.614 194.151C391.851 197.899 387.383 199.508 383.635 197.745ZM155.226 321.789C158.723 319.568 163.357 320.602 165.578 324.099C167.798 327.596 166.764 332.23 163.267 334.451C159.771 336.672 155.136 335.637 152.916 332.141C150.695 328.644 151.729 324.009 155.226 321.789ZM58 22.5C58 26.6422 54.6421 30 50.5 30C46.3579 30 43 26.6422 43 22.5C43 18.3579 46.3579 15 50.5 15C54.6421 15 58 18.3579 58 22.5ZM453.192 94.5376C449.444 92.7741 447.836 88.3062 449.599 84.5582C451.363 80.8102 455.83 79.2014 459.578 80.9648C463.326 82.7283 464.935 87.1962 463.172 90.9442C461.408 94.6922 456.94 96.301 453.192 94.5376ZM241 61.5C241 65.6422 237.642 69 233.5 69C229.358 69 226 65.6422 226 61.5C226 57.3579 229.358 54 233.5 54C237.642 54 241 57.3579 241 61.5ZM365.277 271.994C361.529 270.231 359.921 265.763 361.684 262.015C363.448 258.267 367.915 256.658 371.663 258.422C375.411 260.185 377.02 264.653 375.257 268.401C373.493 272.149 369.025 273.758 365.277 271.994ZM171.331 411.021C174.828 408.8 179.462 409.835 181.683 413.331C183.904 416.828 182.869 421.462 179.373 423.683C175.876 425.904 171.241 424.869 169.021 421.373C166.8 417.876 167.835 413.241 171.331 411.021ZM254 225C254 238.255 243.255 249 230 249C216.745 249 206 238.255 206 225C206 211.745 216.745 201 230 201C243.255 201 254 211.745 254 225Z" stroke="white"/>
</svg>
